<svg id="Layer_1" data-name="Layer 1" xmlns="http://www.w3.org/2000/svg" xmlns:xlink="http://www.w3.org/1999/xlink" viewBox="0 0 55 50"><defs><style>.cls-1{fill:none;}.cls-2{clip-path:url(#clip-path);}.cls-3{fill:#d3d3d3;}.cls-4{fill:#70a133;}</style><clipPath id="clip-path" transform="translate(-1.5 1)"><rect class="cls-1" x="1.5" y="-1" width="55" height="50"/></clipPath></defs><title>icon-checkmark</title><g class="cls-2"><path class="cls-3" d="M27.3-1,26.23-1a26.43,26.43,0,0,0-5.7.84C6.86,3.42-1.29,17.17,2.38,30.47S20.16,51.71,33.83,48.15,55.65,30.83,52,17.53a2.45,2.45,0,0,0-2.9-1.84,2.39,2.39,0,0,0-1.89,2.82,2.33,2.33,0,0,0,.07.25,20.16,20.16,0,0,1-14.7,24.79A20.82,20.82,0,0,1,7.1,29.25,20.17,20.17,0,0,1,21.79,4.45a21.26,21.26,0,0,1,17.64,3.2,2.48,2.48,0,0,0,3.42-.52,2.34,2.34,0,0,0-.53-3.33h0A26.15,26.15,0,0,0,27.3-1Z" transform="translate(-1.5 1)"/><path class="cls-4" d="M53.94.77a2.5,2.5,0,0,0-1.67.76C45.83,8.1,32.94,21.66,25.79,29l-8.6-7.39a2.51,2.51,0,0,0-3.46.2,2.34,2.34,0,0,0,.21,3.37l10.39,8.93A2.5,2.5,0,0,0,27.74,34C34.58,27,49.06,11.68,55.81,4.8a2.33,2.33,0,0,0-.05-3.36A2.5,2.5,0,0,0,53.94.77" transform="translate(-1.5 1)"/></g></svg>